<?xml version="1.0" encoding="UTF-8"?>
<svg enable-background="new 0 0 800 800" version="1.1" viewBox="0 0 650 190" xmlns="http://www.w3.org/2000/svg"><path d="m290.27 143.62c-10.524 0.548-21.033 0.868-31.423 2.729-6.285 1.126-12.519 2.654-18.53 4.823-5.942 2.144-11.625 4.951-17.4 7.498-4.048 1.785-8.157 3.49-12.435 4.648-3.761 1.02-7.529 1.477-11.416 1.557 5.421-0.514 10.485-1.893 15.472-4.086 5.599-2.463 10.895-5.575 16.281-8.458 5.607-3.002 11.332-5.63 17.363-7.67 5.963-2.017 12.08-3.57 18.251-4.8 1.269-0.253 2.542-0.466 3.814-0.688-6.345-0.255-12.704-0.19-19.033 0.184-10.093 0.598-19.999 2.328-29.625 5.423-18.496 5.947-37.437 11.491-57.065 10.659 5.421-0.076 10.821-0.47 16.151-1.525 6.107-1.208 12.085-2.705 18.054-4.471 8.61-2.548 16.89-5.972 25.301-9.081 10.315-3.814 21.387-5.645 32.31-6.584 4.143-0.356 8.303-0.585 12.466-0.688-5.501-1.06-11.058-1.83-16.598-2.339-12.482-1.148-25.238-0.868-37.459 2.11-5.483 1.336-10.644 3.336-15.725 5.767 4.273-2.472 8.625-4.639 13.271-6.333 5.798-2.114 11.86-3.478 17.948-4.431 12.509-1.958 25.391-1.788 37.954-0.45 6.377 0.679 12.746 1.628 18.992 3.097 11.126 2.617 56.551 12.162 83.92 11.119 16.566 0.454 45.618 4.51 45.618 4.51l17.813 19.738s-42.298-12.675-52.813-14.125c-8.841-1.219-37.11-5.846-44.896-6.643-15.439-1.582-41.993-1.727-46.561-1.49z" fill="#e99e18"/><path d="m426.23 144.63c-12.2 0.069-19.357-1.629-29.034-2.003-6.372-0.247-10.912-0.714-16.222-0.907-3.282-0.119-6.578-0.061-9.862-0.088 3.268 0.267 6.553 0.449 9.811 0.808 5.254 0.578 10.477 1.394 15.686 2.28 7.137 1.214 12.805 2.9 18.912 5.284-7.721-1.977-15.746-2.974-23.576-3.853-9.449-1.061-19.018-0.751-28.506-0.646 3.857 0.385 7.715 0.769 11.57 1.158 3.139 0.316 6.229 0.835 9.34 1.349 2.368 0.391 4.756 0.711 7.097 1.243 10.251 2.326 24.929 7.732 34.835 13.162-14.234-5.59-29.262-10.137-44.55-10.662 16.501 2.861 31.657 11.172 46.376 18.914 6.429 3.381 27.499 10.682 55.062 11.773s50.777-8.599 68.201-26.924c5.486-4.764 14.063-10.311 23.806-13.65 5.556-6.839 5.681-16.864 5.681-16.864l-5.938-4.688-20.069 2.357s-44.743 14.331-72.993 18.706-55.627 3.251-55.627 3.251z" fill="#d91b39"/><path d="m573.49 116.46c-15.182 4.979-26.101 8.034-39.804 16.256 13.603-5.292 31.667-9.708 45.292-9.458-18.25 3.667-28 8.167-42.063 22 2.666-1.555 5.296-3.205 8.016-4.662 3.833-1.934 7.639-3.754 11.61-5.384 6.114-2.51 12.614-3.08 19.128-3.197-0.808 0.314-1.615 0.628-2.417 0.958-5.646 2.325-11.007 5.207-16.065 8.623-9.121 6.158-16.812 14.003-24.167 22.122 8.261-6.449 17.308-12.004 27-16.167 5.277-2.32 10.698-4.703 16.333-5.958 4.521-1.007 12.998-2.576 17.625-2.771 14.813-0.625 34.836 3.222 41.418 14.247 1.415-6.726-2.418-17.351-2.418-17.476s-14.292-12.75-14.292-12.75l-24-13.875-9.708-7.417c1e-3 -2e-3 1.492 10.652-11.488 14.909z" fill="#e77a22"/><path d="m609.34 113.64c10.634 3.396 30.53 8.818 33.396 17.136 1.708 4.958 1.022 13.647-1.959 17.136-5.044-10.967-29.032-27.969-31.437-34.272z" fill="#d91b39"/><g fill="#e99e18"><path d="m632.37 124.57c-7.376-6.103-34.628-13.765-43.863-21.807-3.146-2.74-5.827-9.628-7.259-15.027 0.506 2.84 1.169 5.524 2.187 8.229 0.55 1.543 1.325 3.031 2.102 4.47-4.408-5.127-6.7-11.908-7.688-18.488 0.492 5.662 1.945 11.459 4.826 16.424-1.837-2.237-3.303-4.792-4.579-7.379-2.034-4.445-2.688-9.211-2.923-14.042 3e-3 5.004 0.47 9.953 2.41 14.626 1.631 3.924 3.909 7.762 7.059 10.682 3.794 4.566 15.078 9.948 27.497 18.498 13.834 9.523 20.128 22.176 23.9 34.302 9.843-8.929 5.297-23.069-3.669-30.488z"/><ellipse transform="rotate(180.51)" cx="-575.91" cy="-70.549" rx=".85403" ry="2.0621"/><ellipse transform="rotate(180.51)" cx="-578.64" cy="-74.983" rx=".85403" ry="2.0621"/><ellipse transform="rotate(175.84)" cx="-573.52" cy="-128.19" rx=".85403" ry="2.0621"/></g><path d="m621.34 128.31s-7.255-5.928-16.982-11.315c6.466 0.558 18.706 3.639 16.982 11.315z" fill="#e8e342" stroke="#d91b39" stroke-miterlimit="10"/><path d="m529.42 140.01c-15.336-7.857-57.274-41.775-57.274-41.775l-24.565-21.042-40.717-20.559s-111.69-40.249-125.97-43.26c42.18 18.814 112.94 46.883 139.94 65.021-22.123-5.107-87.45-27.042-121.28-32.246 27.932 9.521 90.199 33.205 115.69 48.985-21.785-2.923-40.426-1.813-40.426-1.813 28.729 5.395 55.332 12.447 70.262 19.242-10.315 1.033-40.558 8.052-45.564 10.749 20.666-0.288 51.813 2.337 79.566 6.311-0.039 0.022-0.077 0.045-0.116 0.066-2.921 1.588-6.299 2.288-9.548 2.928 3.834 0.521 7.635 0.807 11.477 0.165 1.528-0.208 3.111-0.635 4.625-1.251-2.094 1.739-4.616 2.714-7.28 3.307 3.093 0.418 6.228 0.301 9.178-0.826 1.918-0.664 3.795-1.423 5.662-2.204-0.326 0.624-0.679 1.235-1.095 1.808-0.969 1.332-2.13 2.349-3.565 3.187 3.515-0.178 6.906-1.839 9.483-4.174 12.779 2.276 23.879 4.802 31.503 7.381z" fill="#e99e18"/><path d="m289.62 43.566c21.891 3.447 48.473 7.601 69.869 12.896 28.371 7.021 51.409 15.401 79.355 23.633-5.699-3.722-11.583-7.241-17.629-10.593-16.183-8.972-33.301-16.682-50.89-23.33-35.249-13.322-70.613-26.336-106.32-38.696 35.514 8.941 70.787 18.49 105.97 28.383 37.993 10.683 75.301 25.693 106.54 47.782 13.219 9.347 21.664 31.544 42.196 46.757 3.653 2.707 13.105 4.111 14.036 4.259 0.017 1e-3 0.034 5e-3 0.05 8e-3 0.01 0 0.038 5e-3 0.045 6e-3l-1e-3 4e-3c0.845 0.141 1.659 0.485 2.328 1.046 1.828 1.537 1.884 4.077 0.12 5.675-0.795 0.722-2.441 1.854-4.849 0.711-12.286-5.837-23.798-9.949-34.332-12.952-0.927 7e-3 -1.924-0.13-2.813-0.087-1.426 0.065-2.866 0.158-4.266 0.401-2.474 0.429-4.653 1.11-6.918 2.077 1.161-1.856 2.539-3.489 4.088-4.976-12.399-2.935-23.138-4.413-31.738-5.573-8.938-1.207-19.386-1.343-28.354-1.158-9.32 0.191-18.406 1.667-27.414 3.656 15.923-8.258 34.095-14.549 52.805-15.334-13.322-3.622-26.768-6.887-40.354-9.679-14.33-2.945-28.852-5.333-43.61-5.355 15.386-2.478 31.018-2.263 46.596-1.64 6.134 0.245 12.262 0.625 18.384 1.074-11.117-4.394-22.272-8.721-33.478-12.943-35.794-13.487-71.895-26.647-109.42-36.052z" fill="#d91b39"/><g fill="#e77a22"><path d="m22.89 42.188c1.964 0 3.798 0.37 5.502 1.11 1.704 0.741 3.197 1.74 4.479 3s2.295 2.751 3.037 4.47c0.741 1.72 1.113 3.54 1.113 5.46s-0.371 3.741-1.11 5.46c-0.741 1.72-1.75 3.21-3.03 4.47-1.281 1.26-2.771 2.26-4.47 3-1.701 0.74-3.531 1.11-5.49 1.11h-6.66v13.92h-6.84v-42zm2e-3 21.24c0.996 0 1.941-0.188 2.837-0.565s1.673-0.893 2.33-1.547 1.174-1.417 1.553-2.291c0.379-0.873 0.568-1.806 0.568-2.797s-0.189-1.924-0.568-2.796c-0.379-0.873-0.896-1.637-1.553-2.292-0.657-0.654-1.424-1.17-2.3-1.547s-1.832-0.565-2.867-0.565h-6.632v14.4z"/><path d="m72.42 42.188v42h-6.84v-17.58h-18.78v17.58h-6.84v-42h6.84v17.58h18.78v-17.58z"/><path d="m82.259 84.188h-6.84v-42h6.84z"/><path d="m111.24 77.348v6.84h-25.98v-42h6.84v35.16z"/><path d="m129.51 85.328c-2.116 0-4.103-0.4-5.959-1.2s-3.483-1.89-4.88-3.27-2.495-3-3.293-4.86-1.197-3.85-1.197-5.97v-13.74c0-2.12 0.398-4.1 1.197-5.94 0.799-1.839 1.896-3.459 3.293-4.86 1.397-1.399 3.024-2.499 4.88-3.3 1.856-0.8 3.843-1.2 5.959-1.2 2.115 0 4.102 0.4 5.958 1.2 1.856 0.801 3.474 1.9 4.851 3.3 1.377 1.401 2.464 3.021 3.263 4.86 0.799 1.84 1.198 3.82 1.198 5.94v13.74c0 2.121-0.399 4.11-1.198 5.97s-1.886 3.48-3.263 4.86-2.995 2.47-4.851 3.27c-1.857 0.8-3.844 1.2-5.958 1.2zm0-37.5c-1.165 0-2.268 0.221-3.312 0.663s-1.947 1.044-2.71 1.808-1.365 1.657-1.807 2.68c-0.441 1.024-0.662 2.118-0.662 3.282v13.794c0 1.165 0.221 2.259 0.662 3.283 0.441 1.023 1.043 1.917 1.807 2.68s1.666 1.365 2.71 1.807c1.043 0.442 2.147 0.663 3.312 0.663 1.164 0 2.257-0.22 3.281-0.663 1.023-0.441 1.916-1.043 2.679-1.807s1.365-1.657 1.807-2.68c0.441-1.024 0.663-2.119 0.663-3.283v-13.794c0-1.165-0.221-2.258-0.663-3.282-0.441-1.023-1.043-1.917-1.807-2.68s-1.656-1.365-2.679-1.808c-1.024-0.442-2.117-0.663-3.281-0.663z"/><path d="m191.22 42.248v41.94h-6.84v-25.74l-10.86 25.74h-7.92l-11.1-26.28v26.28h-6.66v-42h7.44l14.28 33.78 14.22-33.78z"/><path d="m220.8 49.028h-19.74v10.74h19.74v6.84h-19.74v10.74h19.74v6.84h-26.58v-42h26.58z"/><path d="m258.96 84.188h-8.04l-20.34-31.38v31.38h-6.84v-42h7.98l20.4 31.44v-31.44h6.84z"/><path d="m295.2 84.188h-7.02l-2.1-8.04h-15l-2.1 8.04h-7.08l11.28-42h10.801zm-10.98-14.88-5.64-21-5.64 21z"/><path d="m6.8493 95.801v13.36h-0.5v-14h0.68l9.8 13.4v-13.4h0.5v14h-0.74z"/><path d="m22.169 109.54c-0.52 0-1.013-0.1-1.48-0.3s-0.873-0.474-1.22-0.82c-0.347-0.347-0.62-0.75-0.82-1.21s-0.3-0.956-0.3-1.49v-1.199c0-0.533 0.1-1.033 0.3-1.5s0.47-0.873 0.81-1.221c0.34-0.347 0.74-0.62 1.2-0.819 0.46-0.2 0.95-0.301 1.47-0.301s1.013 0.101 1.48 0.301c0.467 0.199 0.87 0.473 1.21 0.819 0.34 0.348 0.61 0.754 0.81 1.221s0.3 0.967 0.3 1.5v0.52h-7.04v0.684c0 0.456 0.086 0.885 0.26 1.286 0.173 0.402 0.41 0.751 0.71 1.046s0.647 0.529 1.04 0.703c0.394 0.175 0.817 0.262 1.27 0.262 0.627 0 1.2-0.16 1.72-0.48s0.92-0.76 1.2-1.32l0.5 0.261c-0.333 0.64-0.807 1.144-1.42 1.51s-1.28 0.547-2 0.547zm3.22-5.059c0-0.456-0.087-0.882-0.26-1.278s-0.407-0.741-0.7-1.036-0.637-0.53-1.03-0.704c-0.393-0.175-0.817-0.262-1.27-0.262-0.44 0-0.856 0.087-1.25 0.262-0.393 0.174-0.737 0.409-1.03 0.704s-0.527 0.641-0.7 1.036c-0.173 0.396-0.26 0.822-0.26 1.278z"/><path d="m34.188 109.16h-0.68l-2.94-3.84-2.94 3.84h-0.7l3.28-4.28-3.2-4.2h0.68l2.88 3.74 2.86-3.74h0.7l-3.22 4.2z"/><path d="m40.688 101.24h-2.98v5.334c0 0.281 0.053 0.549 0.16 0.803 0.106 0.254 0.253 0.475 0.44 0.662s0.406 0.334 0.66 0.44c0.253 0.107 0.52 0.161 0.8 0.161h0.96v0.52h-0.96c-0.36 0-0.697-0.066-1.01-0.2-0.313-0.133-0.59-0.319-0.83-0.56-0.24-0.24-0.427-0.517-0.56-0.83-0.134-0.313-0.2-0.65-0.2-1.01v-5.32h-1.98v-0.561h1.98v-2.88h0.54v2.88h2.98z"/><path d="m53.418 109.56c-0.652 0-1.271-0.127-1.856-0.381-0.585-0.253-1.091-0.596-1.517-1.029-0.426-0.434-0.765-0.943-1.018-1.53-0.252-0.587-0.379-1.206-0.379-1.86v-5.199c0-0.667 0.126-1.29 0.379-1.87s0.592-1.083 1.018-1.511c0.425-0.426 0.931-0.766 1.517-1.02 0.586-0.253 1.205-0.38 1.856-0.38 0.665 0 1.287 0.127 1.866 0.38 0.579 0.254 1.082 0.594 1.507 1.02 0.426 0.428 0.765 0.931 1.018 1.511s0.379 1.203 0.379 1.87h-0.5c0-0.587-0.114-1.141-0.341-1.66-0.228-0.521-0.535-0.974-0.922-1.36s-0.839-0.689-1.353-0.91c-0.515-0.22-1.066-0.33-1.654-0.33s-1.14 0.11-1.654 0.331-0.965 0.524-1.353 0.911c-0.387 0.388-0.695 0.841-0.922 1.362-0.228 0.521-0.341 1.074-0.341 1.662v5.207c0 0.588 0.113 1.143 0.341 1.663 0.227 0.521 0.535 0.975 0.922 1.362 0.388 0.387 0.839 0.69 1.353 0.911 0.515 0.22 1.066 0.33 1.654 0.33s1.139-0.11 1.654-0.331c0.514-0.221 0.965-0.524 1.353-0.913 0.388-0.388 0.695-0.843 0.922-1.364s0.341-1.077 0.341-1.666v-1.865h-3.82v-0.521h4.32v2.38c0 0.654-0.126 1.273-0.379 1.86s-0.592 1.097-1.018 1.53c-0.425 0.434-0.928 0.776-1.507 1.029-0.579 0.254-1.201 0.381-1.866 0.381z"/><path d="m63.028 109.54c-0.52 0-1.013-0.1-1.48-0.3s-0.873-0.474-1.22-0.82c-0.347-0.347-0.62-0.75-0.82-1.21s-0.3-0.956-0.3-1.49v-1.199c0-0.533 0.1-1.033 0.3-1.5s0.47-0.873 0.81-1.221c0.34-0.347 0.74-0.62 1.2-0.819 0.46-0.2 0.95-0.301 1.47-0.301s1.013 0.101 1.48 0.301c0.467 0.199 0.87 0.473 1.21 0.819 0.34 0.348 0.61 0.754 0.81 1.221s0.3 0.967 0.3 1.5v0.52h-7.04v0.684c0 0.456 0.086 0.885 0.26 1.286 0.173 0.402 0.41 0.751 0.71 1.046s0.647 0.529 1.04 0.703c0.394 0.175 0.817 0.262 1.27 0.262 0.627 0 1.2-0.16 1.72-0.48s0.92-0.76 1.2-1.32l0.5 0.261c-0.333 0.64-0.807 1.144-1.42 1.51s-1.28 0.547-2 0.547zm3.22-5.059c0-0.456-0.087-0.882-0.26-1.278s-0.407-0.741-0.7-1.036-0.637-0.53-1.03-0.704c-0.393-0.175-0.817-0.262-1.27-0.262-0.44 0-0.856 0.087-1.25 0.262-0.393 0.174-0.737 0.409-1.03 0.704s-0.527 0.641-0.7 1.036c-0.173 0.396-0.26 0.822-0.26 1.278z"/><path d="m71.458 100.68c0.505 0 0.98 0.094 1.426 0.28 0.446 0.188 0.832 0.447 1.157 0.78s0.585 0.717 0.778 1.15 0.289 0.903 0.289 1.409v4.86h-0.54v-4.872c0-0.428-0.083-0.828-0.25-1.203-0.167-0.374-0.392-0.702-0.672-0.982s-0.612-0.501-0.993-0.662c-0.381-0.16-0.786-0.24-1.214-0.24s-0.83 0.08-1.204 0.24c-0.374 0.161-0.702 0.382-0.983 0.662s-0.505 0.605-0.672 0.973c-0.167 0.367-0.25 0.766-0.25 1.192v4.893h-0.54v-8.48h0.54l0.019 1.721c0.319-0.521 0.751-0.937 1.296-1.25 0.543-0.314 1.148-0.471 1.813-0.471z"/><path d="m79.947 109.54c-0.52 0-1.013-0.1-1.48-0.3s-0.873-0.474-1.22-0.82c-0.347-0.347-0.62-0.75-0.82-1.21s-0.3-0.956-0.3-1.49v-1.199c0-0.533 0.1-1.033 0.3-1.5s0.47-0.873 0.81-1.221c0.34-0.347 0.74-0.62 1.2-0.819 0.46-0.2 0.95-0.301 1.47-0.301s1.013 0.101 1.48 0.301c0.467 0.199 0.87 0.473 1.21 0.819 0.34 0.348 0.61 0.754 0.81 1.221s0.3 0.967 0.3 1.5v0.52h-7.04v0.684c0 0.456 0.086 0.885 0.26 1.286 0.173 0.402 0.41 0.751 0.71 1.046s0.647 0.529 1.04 0.703c0.394 0.175 0.817 0.262 1.27 0.262 0.627 0 1.2-0.16 1.72-0.48s0.92-0.76 1.2-1.32l0.5 0.261c-0.333 0.64-0.807 1.144-1.42 1.51s-1.279 0.547-2 0.547zm3.221-5.059c0-0.456-0.087-0.882-0.26-1.278s-0.407-0.741-0.7-1.036-0.637-0.53-1.03-0.704c-0.393-0.175-0.817-0.262-1.27-0.262-0.44 0-0.856 0.087-1.25 0.262-0.393 0.174-0.737 0.409-1.03 0.704s-0.527 0.641-0.7 1.036c-0.173 0.396-0.26 0.822-0.26 1.278z"/><path d="m87.407 100.68h1.8v0.561h-1.8c-0.293 0-0.57 0.054-0.83 0.16s-0.49 0.257-0.69 0.45-0.357 0.416-0.47 0.67c-0.113 0.253-0.17 0.52-0.17 0.8v5.84h-0.54v-8.48h0.54v1.061c0.253-0.32 0.566-0.576 0.94-0.771 0.373-0.193 0.78-0.291 1.22-0.291z"/><path d="m97.407 100.68h0.54v8.48h-0.54v-1.9c-0.374 0.681-0.897 1.23-1.57 1.65s-1.423 0.63-2.25 0.63c-0.6 0-1.167-0.117-1.7-0.35-0.534-0.233-1-0.55-1.4-0.95s-0.713-0.866-0.94-1.4c-0.227-0.533-0.34-1.106-0.34-1.72s0.113-1.19 0.34-1.729c0.227-0.54 0.54-1.011 0.94-1.41 0.4-0.4 0.867-0.717 1.4-0.95s1.1-0.351 1.7-0.351c0.827 0 1.577 0.211 2.25 0.631s1.197 0.977 1.57 1.67zm-3.82 8.32c0.52 0 1.013-0.103 1.48-0.31s0.873-0.483 1.22-0.83 0.62-0.757 0.82-1.23 0.3-0.977 0.3-1.51-0.1-1.036-0.3-1.51-0.473-0.884-0.82-1.23c-0.347-0.347-0.753-0.623-1.22-0.83-0.467-0.206-0.96-0.31-1.48-0.31-0.533 0-1.033 0.104-1.5 0.31-0.467 0.207-0.874 0.483-1.22 0.83-0.347 0.347-0.62 0.757-0.82 1.23-0.2 0.474-0.3 0.977-0.3 1.51s0.1 1.037 0.3 1.51c0.2 0.474 0.473 0.884 0.82 1.23 0.346 0.347 0.753 0.623 1.22 0.83s0.967 0.31 1.5 0.31z"/><path d="m104.45 101.24h-2.98v5.334c0 0.281 0.053 0.549 0.16 0.803 0.106 0.254 0.253 0.475 0.44 0.662s0.406 0.334 0.66 0.44c0.253 0.107 0.52 0.161 0.8 0.161h0.96v0.52h-0.96c-0.36 0-0.697-0.066-1.01-0.2-0.313-0.133-0.59-0.319-0.83-0.56-0.24-0.24-0.427-0.517-0.56-0.83-0.134-0.313-0.2-0.65-0.2-1.01v-5.32h-1.98v-0.561h1.98v-2.88h0.54v2.88h2.98z"/><path d="m108.03 100.68v8.48h-0.54v-7.92h-2v-0.561h2.54zm0-5.519v0.52h-0.54v-0.52z"/><path d="m113.41 109.54c-0.6 0-1.167-0.117-1.7-0.35-0.534-0.233-1-0.55-1.4-0.95s-0.713-0.866-0.94-1.4c-0.227-0.533-0.34-1.106-0.34-1.72s0.113-1.19 0.34-1.729c0.227-0.54 0.54-1.011 0.94-1.41 0.4-0.4 0.867-0.717 1.4-0.95s1.1-0.351 1.7-0.351 1.163 0.117 1.69 0.351 0.99 0.55 1.39 0.95c0.4 0.399 0.713 0.87 0.94 1.41 0.227 0.539 0.34 1.116 0.34 1.729s-0.114 1.187-0.34 1.72c-0.227 0.534-0.54 1-0.94 1.4s-0.863 0.717-1.39 0.95c-0.526 0.233-1.089 0.35-1.69 0.35zm-9e-3 -8.299c-0.535 0-1.033 0.104-1.494 0.311s-0.866 0.485-1.213 0.832c-0.347 0.348-0.622 0.759-0.822 1.233-0.201 0.475-0.301 0.979-0.301 1.514s0.1 1.04 0.301 1.515c0.2 0.474 0.475 0.886 0.822 1.232 0.348 0.348 0.752 0.625 1.213 0.833 0.461 0.207 0.959 0.311 1.494 0.311 0.521 0 1.016-0.104 1.483-0.311 0.468-0.208 0.876-0.485 1.223-0.833 0.348-0.347 0.622-0.759 0.822-1.232 0.201-0.475 0.301-0.979 0.301-1.515 0-0.534-0.101-1.039-0.301-1.514s-0.475-0.886-0.822-1.233-0.755-0.625-1.223-0.832c-0.468-0.208-0.962-0.311-1.483-0.311z"/><path d="m122.44 100.68c0.505 0 0.98 0.094 1.426 0.28 0.446 0.188 0.832 0.447 1.157 0.78s0.585 0.717 0.778 1.15 0.289 0.903 0.289 1.409v4.86h-0.54v-4.872c0-0.428-0.083-0.828-0.25-1.203-0.167-0.374-0.392-0.702-0.672-0.982s-0.612-0.501-0.993-0.662c-0.381-0.16-0.786-0.24-1.214-0.24s-0.83 0.08-1.204 0.24c-0.374 0.161-0.702 0.382-0.983 0.662s-0.505 0.605-0.672 0.973c-0.167 0.367-0.25 0.766-0.25 1.192v4.893h-0.54v-8.48h0.54l0.019 1.721c0.319-0.521 0.751-0.937 1.296-1.25 0.543-0.314 1.148-0.471 1.813-0.471z"/><path d="m134.53 95.162v14h-0.5v-14z"/><path d="m148.63 101.78c0.346 0.347 0.615 0.74 0.808 1.18s0.29 0.907 0.29 1.4v4.8h-0.54v-4.8c0-0.854-0.307-1.587-0.92-2.2-0.307-0.293-0.65-0.517-1.03-0.67s-0.777-0.23-1.19-0.23c-0.44 0-0.85 0.08-1.23 0.24s-0.71 0.38-0.99 0.66-0.503 0.606-0.67 0.98c-0.167 0.373-0.25 0.773-0.25 1.199v4.821h-0.54v-4.8c0-0.413-0.08-0.807-0.241-1.181-0.161-0.373-0.395-0.713-0.702-1.02-0.294-0.293-0.632-0.517-1.013-0.67s-0.779-0.23-1.194-0.23c-0.441 0-0.853 0.08-1.234 0.24s-0.712 0.38-0.993 0.66-0.505 0.606-0.672 0.98c-0.167 0.373-0.25 0.773-0.25 1.199v4.82h-0.56v-8.48h0.56l0.02 1.74c0.32-0.506 0.756-0.92 1.31-1.24 0.553-0.319 1.163-0.479 1.83-0.479 1.013 0 1.88 0.36 2.6 1.08 0.347 0.347 0.613 0.747 0.8 1.2 0.279-0.681 0.724-1.23 1.336-1.65s1.303-0.63 2.074-0.63c1.009 1e-3 1.872 0.361 2.591 1.081z"/><path d="m158.95 100.68h0.54v8.48h-0.54v-1.9c-0.374 0.681-0.897 1.23-1.57 1.65s-1.423 0.63-2.25 0.63c-0.6 0-1.167-0.117-1.7-0.35-0.534-0.233-1-0.55-1.4-0.95s-0.713-0.866-0.94-1.4c-0.227-0.533-0.34-1.106-0.34-1.72s0.113-1.19 0.34-1.729c0.227-0.54 0.54-1.011 0.94-1.41 0.4-0.4 0.867-0.717 1.4-0.95s1.1-0.351 1.7-0.351c0.827 0 1.577 0.211 2.25 0.631s1.197 0.977 1.57 1.67zm-3.82 8.32c0.52 0 1.013-0.103 1.48-0.31s0.873-0.483 1.22-0.83 0.62-0.757 0.82-1.23 0.3-0.977 0.3-1.51-0.1-1.036-0.3-1.51-0.473-0.884-0.82-1.23c-0.347-0.347-0.753-0.623-1.22-0.83-0.467-0.206-0.96-0.31-1.48-0.31-0.533 0-1.033 0.104-1.5 0.31-0.467 0.207-0.874 0.483-1.22 0.83-0.347 0.347-0.62 0.757-0.82 1.23-0.2 0.474-0.3 0.977-0.3 1.51s0.1 1.037 0.3 1.51c0.2 0.474 0.473 0.884 0.82 1.23 0.346 0.347 0.753 0.623 1.22 0.83s0.967 0.31 1.5 0.31z"/><path d="m171.45 100.68v0.521h-4.38c0.692 0.388 1.251 0.926 1.677 1.613 0.425 0.688 0.639 1.454 0.639 2.296 0 0.615-0.117 1.189-0.35 1.725-0.232 0.534-0.549 1.002-0.947 1.403s-0.864 0.719-1.396 0.952c-0.531 0.233-1.103 0.351-1.714 0.351v0.021c-0.359 0-0.698 0.069-1.018 0.21-0.319 0.14-0.598 0.33-0.837 0.569-0.239 0.24-0.429 0.521-0.568 0.84-0.14 0.32-0.209 0.66-0.209 1.021s0.07 0.7 0.209 1.02c0.14 0.32 0.329 0.601 0.568 0.841 0.239 0.239 0.519 0.43 0.837 0.569 0.319 0.141 0.658 0.21 1.018 0.21 0.612 0 1.186 0.087 1.725 0.261 0.538 0.173 1.01 0.406 1.416 0.699 0.405 0.294 0.725 0.637 0.957 1.03s0.35 0.816 0.35 1.271c0 0.453-0.117 0.876-0.35 1.27s-0.553 0.736-0.958 1.03c-0.405 0.293-0.878 0.526-1.417 0.7-0.539 0.173-1.121 0.26-1.746 0.26-0.612 0-1.191-0.087-1.736-0.26-0.546-0.174-1.021-0.407-1.427-0.7-0.405-0.294-0.725-0.637-0.958-1.03s-0.349-0.816-0.349-1.27c0-0.36 0.073-0.7 0.219-1.021 0.146-0.32 0.356-0.617 0.629-0.89 0.272-0.273 0.592-0.511 0.958-0.71 0.365-0.2 0.768-0.354 1.207-0.46-0.505-0.268-0.913-0.65-1.225-1.15s-0.468-1.057-0.468-1.67c0-0.64 0.166-1.21 0.499-1.71 0.332-0.5 0.764-0.884 1.295-1.15-0.439-0.146-0.848-0.356-1.228-0.63-0.379-0.272-0.705-0.593-0.978-0.96-0.273-0.366-0.486-0.773-0.639-1.22-0.153-0.446-0.229-0.917-0.229-1.41 0-0.6 0.113-1.17 0.339-1.71 0.227-0.54 0.539-1.01 0.938-1.41 0.399-0.399 0.861-0.717 1.387-0.95 0.525-0.232 1.087-0.356 1.686-0.37h6.574zm-2.545 17.421c0-0.374-0.104-0.724-0.31-1.051-0.207-0.326-0.49-0.613-0.851-0.859-0.359-0.247-0.776-0.44-1.25-0.58-0.474-0.141-0.983-0.21-1.53-0.21-0.533 0-1.04 0.069-1.52 0.21-0.48 0.14-0.9 0.333-1.26 0.58-0.36 0.246-0.644 0.533-0.85 0.859-0.207 0.327-0.31 0.677-0.31 1.051 0 0.373 0.103 0.723 0.31 1.05 0.207 0.326 0.49 0.613 0.85 0.859 0.36 0.247 0.78 0.44 1.26 0.58 0.48 0.141 0.987 0.21 1.52 0.21 0.546 0 1.056-0.069 1.53-0.21 0.474-0.14 0.891-0.333 1.25-0.58 0.36-0.246 0.644-0.533 0.851-0.859 0.207-0.327 0.31-0.677 0.31-1.05zm-0.059-12.98c0-0.536-0.104-1.042-0.311-1.518s-0.483-0.888-0.83-1.236-0.757-0.627-1.229-0.835c-0.474-0.207-0.978-0.312-1.51-0.312-0.533 0-1.037 0.104-1.51 0.312-0.474 0.208-0.884 0.486-1.23 0.835-0.347 0.349-0.624 0.761-0.83 1.236-0.207 0.476-0.31 0.981-0.31 1.518s0.103 1.042 0.31 1.518c0.207 0.477 0.483 0.889 0.83 1.237 0.346 0.348 0.756 0.626 1.23 0.834 0.473 0.207 0.977 0.312 1.51 0.312s1.037-0.104 1.51-0.312 0.883-0.486 1.229-0.834c0.347-0.349 0.623-0.761 0.83-1.237 0.207-0.477 0.311-0.982 0.311-1.518z"/><path d="m175.19 109.54c-0.521 0-1.014-0.1-1.48-0.3s-0.873-0.474-1.22-0.82-0.62-0.75-0.82-1.21-0.3-0.956-0.3-1.49v-1.199c0-0.533 0.1-1.033 0.3-1.5s0.47-0.873 0.811-1.221c0.34-0.347 0.739-0.62 1.199-0.819 0.46-0.2 0.95-0.301 1.471-0.301 0.52 0 1.013 0.101 1.479 0.301 0.467 0.199 0.87 0.473 1.21 0.819 0.34 0.348 0.61 0.754 0.811 1.221s0.3 0.967 0.3 1.5v0.52h-7.04v0.684c0 0.456 0.087 0.885 0.26 1.286 0.173 0.402 0.41 0.751 0.71 1.046s0.646 0.529 1.04 0.703c0.394 0.175 0.816 0.262 1.271 0.262 0.626 0 1.199-0.16 1.72-0.48 0.52-0.32 0.92-0.76 1.2-1.32l0.5 0.261c-0.334 0.64-0.807 1.144-1.42 1.51s-1.283 0.547-2.002 0.547zm3.219-5.059c0-0.456-0.087-0.882-0.26-1.278-0.174-0.396-0.407-0.741-0.7-1.036-0.294-0.295-0.637-0.53-1.03-0.704-0.394-0.175-0.816-0.262-1.27-0.262-0.44 0-0.857 0.087-1.25 0.262-0.394 0.174-0.737 0.409-1.03 0.704s-0.527 0.641-0.7 1.036c-0.173 0.396-0.26 0.822-0.26 1.278z"/><path d="m180.49 102.98c0.373-0.693 0.896-1.25 1.57-1.67 0.673-0.42 1.423-0.631 2.25-0.631 0.6 0 1.166 0.117 1.699 0.351s1 0.55 1.4 0.95c0.4 0.399 0.713 0.87 0.94 1.41 0.227 0.539 0.34 1.116 0.34 1.729s-0.113 1.187-0.34 1.72c-0.228 0.534-0.54 1-0.94 1.4s-0.867 0.717-1.4 0.95c-0.533 0.232-1.1 0.35-1.699 0.35-0.827 0-1.577-0.21-2.25-0.63-0.674-0.42-1.197-0.97-1.57-1.65v1.9h-0.54v-14.02h0.54zm3.82 6.019c0.533 0 1.033-0.103 1.5-0.31 0.466-0.207 0.873-0.483 1.22-0.83s0.62-0.757 0.82-1.23c0.199-0.473 0.3-0.977 0.3-1.51s-0.101-1.036-0.3-1.51c-0.2-0.474-0.474-0.884-0.82-1.23s-0.754-0.623-1.22-0.83c-0.467-0.206-0.967-0.31-1.5-0.31-0.521 0-1.014 0.104-1.48 0.31-0.467 0.207-0.873 0.483-1.22 0.83s-0.62 0.757-0.82 1.23-0.3 0.977-0.3 1.51 0.1 1.037 0.3 1.51c0.2 0.474 0.474 0.884 0.82 1.23s0.753 0.623 1.22 0.83 0.959 0.31 1.48 0.31z"/><path d="m194.07 109.54c-0.6 0-1.167-0.117-1.7-0.35s-1-0.55-1.399-0.95c-0.4-0.4-0.714-0.866-0.94-1.4-0.227-0.533-0.34-1.106-0.34-1.72s0.113-1.19 0.34-1.729c0.227-0.54 0.54-1.011 0.94-1.41 0.399-0.4 0.866-0.717 1.399-0.95s1.101-0.351 1.7-0.351c0.601 0 1.163 0.117 1.69 0.351 0.526 0.233 0.989 0.55 1.39 0.95 0.4 0.399 0.713 0.87 0.94 1.41 0.227 0.539 0.34 1.116 0.34 1.729s-0.113 1.187-0.34 1.72c-0.228 0.534-0.54 1-0.94 1.4s-0.863 0.717-1.39 0.95-1.09 0.35-1.69 0.35zm-0.01-8.299c-0.535 0-1.033 0.104-1.494 0.311s-0.865 0.485-1.213 0.832c-0.348 0.348-0.622 0.759-0.822 1.233-0.201 0.475-0.301 0.979-0.301 1.514s0.1 1.04 0.301 1.515c0.2 0.474 0.475 0.886 0.822 1.232 0.348 0.348 0.752 0.625 1.213 0.833 0.461 0.207 0.959 0.311 1.494 0.311 0.521 0 1.016-0.104 1.483-0.311 0.468-0.208 0.876-0.485 1.224-0.833 0.348-0.347 0.621-0.759 0.822-1.232 0.2-0.475 0.301-0.979 0.301-1.515 0-0.534-0.101-1.039-0.301-1.514-0.201-0.475-0.475-0.886-0.822-1.233-0.348-0.347-0.756-0.625-1.224-0.832s-0.962-0.311-1.483-0.311z"/><path d="m207.63 100.68h0.54v8.48h-0.54v-1.9c-0.374 0.681-0.897 1.23-1.57 1.65s-1.423 0.63-2.25 0.63c-0.6 0-1.167-0.117-1.7-0.35s-1-0.55-1.399-0.95c-0.4-0.4-0.714-0.866-0.94-1.4-0.227-0.533-0.34-1.106-0.34-1.72s0.113-1.19 0.34-1.729c0.227-0.54 0.54-1.011 0.94-1.41 0.399-0.4 0.866-0.717 1.399-0.95s1.101-0.351 1.7-0.351c0.827 0 1.577 0.211 2.25 0.631s1.196 0.977 1.57 1.67zm-3.82 8.32c0.521 0 1.014-0.103 1.48-0.31s0.873-0.483 1.22-0.83 0.62-0.757 0.82-1.23c0.199-0.473 0.3-0.977 0.3-1.51s-0.101-1.036-0.3-1.51c-0.2-0.474-0.474-0.884-0.82-1.23s-0.754-0.623-1.22-0.83c-0.467-0.206-0.96-0.31-1.48-0.31-0.533 0-1.033 0.104-1.5 0.31-0.467 0.207-0.873 0.483-1.22 0.83s-0.62 0.757-0.82 1.23-0.3 0.977-0.3 1.51 0.1 1.037 0.3 1.51c0.2 0.474 0.474 0.884 0.82 1.23s0.753 0.623 1.22 0.83 0.967 0.31 1.5 0.31z"/><path d="m211.87 100.68h1.8v0.561h-1.8c-0.294 0-0.57 0.054-0.83 0.16s-0.49 0.257-0.69 0.45c-0.199 0.193-0.356 0.416-0.47 0.67-0.113 0.253-0.17 0.52-0.17 0.8v5.84h-0.54v-8.48h0.54v1.061c0.253-0.32 0.566-0.576 0.94-0.771 0.374-0.193 0.78-0.291 1.22-0.291z"/><path d="m221.95 95.142h0.54v14.02h-0.54v-1.9c-0.374 0.681-0.897 1.23-1.57 1.65s-1.423 0.63-2.25 0.63c-0.6 0-1.167-0.117-1.7-0.35s-1-0.55-1.399-0.95c-0.4-0.4-0.714-0.866-0.94-1.4-0.227-0.533-0.34-1.106-0.34-1.72s0.113-1.19 0.34-1.729c0.227-0.54 0.54-1.011 0.94-1.41 0.399-0.4 0.866-0.717 1.399-0.95s1.101-0.351 1.7-0.351c0.827 0 1.577 0.211 2.25 0.631s1.196 0.977 1.57 1.67zm-3.82 13.859c0.521 0 1.014-0.103 1.48-0.31s0.873-0.483 1.22-0.83 0.62-0.757 0.82-1.23c0.199-0.473 0.3-0.977 0.3-1.51s-0.101-1.036-0.3-1.51c-0.2-0.474-0.474-0.884-0.82-1.23s-0.754-0.623-1.22-0.83c-0.467-0.206-0.96-0.31-1.48-0.31-0.533 0-1.033 0.104-1.5 0.31-0.467 0.207-0.873 0.483-1.22 0.83s-0.62 0.757-0.82 1.23-0.3 0.977-0.3 1.51 0.1 1.037 0.3 1.51c0.2 0.474 0.474 0.884 0.82 1.23s0.753 0.623 1.22 0.83 0.967 0.31 1.5 0.31z"/><path d="m234.24 109.54c-0.532 0-1.03-0.1-1.496-0.3s-0.871-0.47-1.217-0.811c-0.346-0.34-0.619-0.742-0.818-1.21-0.199-0.466-0.299-0.96-0.299-1.479h0.54c0 0.439 0.087 0.86 0.26 1.26s0.41 0.75 0.71 1.05c0.3 0.301 0.65 0.537 1.05 0.71 0.4 0.174 0.827 0.261 1.28 0.261s0.88-0.087 1.28-0.261c0.399-0.173 0.75-0.409 1.05-0.71 0.3-0.3 0.537-0.652 0.71-1.06 0.173-0.406 0.26-0.837 0.26-1.29 0-0.573-0.093-1.043-0.279-1.41-0.188-0.366-0.438-0.67-0.75-0.91-0.313-0.239-0.674-0.433-1.08-0.58-0.407-0.146-0.83-0.286-1.271-0.42-0.439-0.133-0.883-0.283-1.33-0.45-0.446-0.166-0.85-0.386-1.21-0.659-0.359-0.273-0.653-0.623-0.88-1.051-0.227-0.426-0.34-0.973-0.34-1.64 0-0.533 0.1-1.03 0.299-1.49s0.473-0.859 0.818-1.199c0.346-0.341 0.751-0.61 1.217-0.811s0.964-0.3 1.496-0.3c0.519 0 1.01 0.097 1.476 0.29s0.871 0.46 1.217 0.8 0.619 0.747 0.818 1.22c0.199 0.474 0.299 0.983 0.299 1.53h-0.5c0-0.479-0.087-0.92-0.26-1.32-0.173-0.399-0.41-0.75-0.71-1.05s-0.65-0.533-1.05-0.7c-0.4-0.166-0.827-0.25-1.28-0.25s-0.88 0.087-1.28 0.261c-0.399 0.173-0.75 0.406-1.05 0.699-0.3 0.294-0.537 0.641-0.71 1.04-0.173 0.4-0.26 0.827-0.26 1.28 0 0.573 0.09 1.04 0.269 1.4 0.18 0.359 0.423 0.66 0.729 0.899 0.306 0.24 0.661 0.434 1.067 0.58 0.405 0.147 0.834 0.287 1.286 0.42 0.438 0.134 0.881 0.284 1.326 0.45 0.445 0.167 0.848 0.387 1.207 0.66 0.358 0.273 0.65 0.627 0.877 1.06 0.227 0.434 0.339 0.99 0.339 1.67 0 0.521-0.1 1.014-0.299 1.48s-0.473 0.873-0.818 1.22-0.751 0.62-1.217 0.82-0.958 0.301-1.476 0.301z"/><path d="m243.45 109.54c-0.6 0-1.167-0.117-1.7-0.35s-1-0.55-1.399-0.95c-0.4-0.4-0.714-0.866-0.94-1.4-0.227-0.533-0.34-1.106-0.34-1.72s0.113-1.19 0.34-1.729c0.227-0.54 0.54-1.011 0.94-1.41 0.399-0.4 0.866-0.717 1.399-0.95s1.101-0.351 1.7-0.351c0.601 0 1.163 0.117 1.69 0.351 0.526 0.233 0.989 0.55 1.39 0.95 0.4 0.399 0.713 0.87 0.94 1.41 0.227 0.539 0.34 1.116 0.34 1.729s-0.113 1.187-0.34 1.72c-0.228 0.534-0.54 1-0.94 1.4s-0.863 0.717-1.39 0.95c-0.526 0.233-1.089 0.35-1.69 0.35zm-9e-3 -8.299c-0.535 0-1.033 0.104-1.494 0.311s-0.865 0.485-1.213 0.832c-0.348 0.348-0.622 0.759-0.822 1.233-0.201 0.475-0.301 0.979-0.301 1.514s0.1 1.04 0.301 1.515c0.2 0.474 0.475 0.886 0.822 1.232 0.348 0.348 0.752 0.625 1.213 0.833 0.461 0.207 0.959 0.311 1.494 0.311 0.521 0 1.016-0.104 1.483-0.311 0.468-0.208 0.876-0.485 1.224-0.833 0.348-0.347 0.621-0.759 0.822-1.232 0.2-0.475 0.301-0.979 0.301-1.515 0-0.534-0.101-1.039-0.301-1.514-0.201-0.475-0.475-0.886-0.822-1.233-0.348-0.347-0.756-0.625-1.224-0.832s-0.962-0.311-1.483-0.311z"/><path d="m253.91 100.68v0.561h-3.22v7.92h-0.54v-7.92h-1.34v-0.561h1.34v-2.5c0-0.413 0.077-0.803 0.231-1.17 0.154-0.366 0.367-0.687 0.64-0.96 0.272-0.272 0.592-0.489 0.959-0.649 0.366-0.16 0.757-0.24 1.17-0.24h0.46v0.52h-0.46c-0.333 0-0.649 0.067-0.95 0.201-0.3 0.134-0.563 0.312-0.79 0.532s-0.403 0.482-0.529 0.783c-0.127 0.302-0.19 0.626-0.19 0.974v2.51h3.219z"/><path d="m260.43 101.24h-2.98v5.334c0 0.281 0.054 0.549 0.16 0.803s0.254 0.475 0.44 0.662c0.187 0.187 0.406 0.334 0.66 0.44 0.253 0.107 0.52 0.161 0.8 0.161h0.96v0.52h-0.96c-0.36 0-0.697-0.066-1.01-0.2-0.313-0.133-0.59-0.319-0.83-0.56s-0.427-0.517-0.561-0.83c-0.133-0.313-0.199-0.65-0.199-1.01v-5.32h-1.98v-0.561h1.98v-2.88h0.539v2.88h2.98v0.561z"/><path d="m278.39 100.68-4.1 8.48h-0.561l-3.8-7.86-3.8 7.86h-0.561l-4.1-8.48h0.62l3.76 7.801 3.78-7.801h0.62l3.76 7.801 3.78-7.801z"/><path d="m286.57 100.68h0.54v8.48h-0.54v-1.9c-0.374 0.681-0.897 1.23-1.57 1.65s-1.423 0.63-2.25 0.63c-0.6 0-1.167-0.117-1.7-0.35s-1-0.55-1.399-0.95c-0.4-0.4-0.714-0.866-0.94-1.4-0.227-0.533-0.34-1.106-0.34-1.72s0.113-1.19 0.34-1.729c0.227-0.54 0.54-1.011 0.94-1.41 0.399-0.4 0.866-0.717 1.399-0.95s1.101-0.351 1.7-0.351c0.827 0 1.577 0.211 2.25 0.631s1.196 0.977 1.57 1.67zm-3.821 8.32c0.521 0 1.014-0.103 1.48-0.31s0.873-0.483 1.22-0.83 0.62-0.757 0.82-1.23c0.199-0.473 0.3-0.977 0.3-1.51s-0.101-1.036-0.3-1.51c-0.2-0.474-0.474-0.884-0.82-1.23s-0.754-0.623-1.22-0.83c-0.467-0.206-0.96-0.31-1.48-0.31-0.533 0-1.033 0.104-1.5 0.31-0.467 0.207-0.873 0.483-1.22 0.83s-0.62 0.757-0.82 1.23-0.3 0.977-0.3 1.51 0.1 1.037 0.3 1.51c0.2 0.474 0.474 0.884 0.82 1.23s0.753 0.623 1.22 0.83 0.967 0.31 1.5 0.31z"/><path d="m290.81 100.68h1.8v0.561h-1.8c-0.294 0-0.57 0.054-0.83 0.16s-0.49 0.257-0.69 0.45c-0.199 0.193-0.356 0.416-0.47 0.67-0.113 0.253-0.17 0.52-0.17 0.8v5.84h-0.54v-8.48h0.54v1.061c0.253-0.32 0.566-0.576 0.94-0.771 0.373-0.193 0.779-0.291 1.22-0.291z"/><path d="m296.51 109.54c-0.521 0-1.014-0.1-1.48-0.3s-0.873-0.474-1.22-0.82-0.62-0.75-0.82-1.21-0.3-0.956-0.3-1.49v-1.199c0-0.533 0.1-1.033 0.3-1.5s0.47-0.873 0.811-1.221c0.34-0.347 0.739-0.62 1.199-0.819 0.46-0.2 0.95-0.301 1.471-0.301 0.52 0 1.013 0.101 1.479 0.301 0.467 0.199 0.87 0.473 1.21 0.819 0.34 0.348 0.61 0.754 0.811 1.221s0.3 0.967 0.3 1.5v0.52h-7.04v0.684c0 0.456 0.087 0.885 0.26 1.286 0.173 0.402 0.41 0.751 0.71 1.046s0.646 0.529 1.04 0.703c0.394 0.175 0.816 0.262 1.271 0.262 0.626 0 1.199-0.16 1.72-0.48 0.52-0.32 0.92-0.76 1.2-1.32l0.5 0.261c-0.334 0.64-0.807 1.144-1.42 1.51s-1.282 0.547-2.002 0.547zm3.22-5.059c0-0.456-0.087-0.882-0.26-1.278-0.174-0.396-0.407-0.741-0.7-1.036-0.294-0.295-0.637-0.53-1.03-0.704-0.394-0.175-0.816-0.262-1.27-0.262-0.44 0-0.857 0.087-1.25 0.262-0.394 0.174-0.737 0.409-1.03 0.704s-0.527 0.641-0.7 1.036c-0.173 0.396-0.26 0.822-0.26 1.278z"/></g></svg>
