<?xml version="1.0" encoding="UTF-8"?>
<svg width="132.29mm" height="132.29mm" version="1.1" viewBox="0 0 132.29 132.29" xml:space="preserve" xmlns="http://www.w3.org/2000/svg"><g transform="matrix(1.0427 0 0 1.0427 -.017147 -1.1711)"><path d="m103.79 1.5c2.226 55.884-2.592 66.082-26.774 81.11-10.46 6.495-24.44-7.2571-36.56-5.1501-14.529 2.53-33.119 12.655-39.169 20.603l0.00607-0.0012c56.82 1.164 44.414 29.924 80.7 29.64 21.39-0.17 35.89-18.483 38.62-27.615 10.456-34.942 3.1379-65.073-16.823-98.587zm11.375 57.714c-1.6412 10.692-0.54281 11.478 6.66 16.938-8.649-2.0114-10.977 0.7243-14.702 8.2179 1.5999-8.243 0.4741-11.62-5.8526-15.099 8.3149 0.88078 9.4155 0.05081 13.895-10.057zm-34.884 33.692c-3.7887 11.898-1.8578 13.462 6.4355 18.092-12.032-2.4927-11.44 1.5364-16.965 7.6122 2.9076-9.5873 1.2336-12.084-5.6426-16.122 5.6959 0.20558 11.418 1.8392 16.172-9.5819z" style="fill:#73d6ed"/><path d="m69.863 33.123-42.793 78.941 5.4648 2.9629 42.791-78.943z" style="-inkscape-stroke:none;color:#000000;fill:#73d6ed"/><g style="fill:#73d6ed"><path d="m64.894 48.218 7.18-13.796" style="-inkscape-stroke:none;color:#000000;fill:#73d6ed;stroke-width:6.557"/></g><path d="m89.844 3.2499-14.504 13.697-16.245-10.04 7.31 17.535-16.03 14.152 21.282-2.9352 8.782 19.4 2.8299-22.61 19.26-1.614-17.67-8.8749zm-7.235 13.028-1.5585 8.3965 7.2681 3.9461-8.1864 1.1558-1.6952 9.6819-3.8619-8.8428-9.5827 1.4895 7.3746-6.5192-3.4781-7.6725 7.4099 4.1481z" style="fill:#73d6ed"/></g></svg>
