<svg version="1.1" viewBox="0 0 500 500" xmlns="http://www.w3.org/2000/svg">
 <g transform="translate(2821.8 -1082)">
  <path d="m-355.57 76.555 202.03-161.62" style="fill:#1c6e8a"/>
  <g transform="matrix(.37007 0 0 .37007 -2142.1 1057.6)" style="fill:#fff">
   <path d="m-1161.4 420.32-23.031 507.44c-124.24-11.608-221.47-116.13-221.47-243.41 0-32.651 6.4177-63.806 18.031-92.281-50.087 54.651-80.656 127.46-80.656 207.44 0 169.63 137.49 307.16 307.12 307.16 169.63 0 307.16-137.53 307.16-307.16 0-79.974-30.569-152.79-80.656-207.44 11.614 28.475 18.031 59.63 18.031 92.281 0 127.26-97.244 231.78-221.47 243.41l-23.062-507.44z" style="fill:#fff"/>
   <path transform="matrix(.87405 .0094507 -.0094507 .87405 -329.02 112.52)" d="m-834.39 783.66-110.38-81.513-108.59 83.888 43.414-130.17-113.34-77.348 137.21 1.0661 38.54-131.69 41.387 130.82 137.16-4.0416-111.63 79.788z" style="fill:#fff"/>
   <path d="m-496.29 424.19c-161.98 136.89-273.2 163.66-414.41 177.97 125.9 125.69 74.646 325.52-17.938 432.16 50.392-12.852 100.87-33.931 148.66-63.25l-31.5-257.97 57.562 240.97c25.617-17.743 50.256-37.957 73.469-60.656l-94.188-194.44 114.66 173.38c19.592-21.236 37.96-44.41 54.812-69.469l-137.94-122.88 150.03 104.12c13.994-22.615 26.797-46.679 38.156-72.188l-156.16-57.531 165.12 36.281c7.5977-18.91 14.476-38.562 20.469-58.969l-157.47-10.938 162.91-8.7188c6.2925-24.101 11.443-49.187 15.312-75.281l-164.09 48.188 167.41-73.438c3.1944-28.019 4.9423-57.134 5.125-87.344z" style="fill:#fff"/>
   <path d="m-1827.7 424.19c161.98 136.89 273.2 163.66 414.41 177.97-125.9 125.69-74.646 325.52 17.938 432.16-50.392-12.852-100.87-33.931-148.66-63.25l31.5-257.97-57.562 240.97c-25.617-17.743-50.256-37.957-73.469-60.656l94.188-194.44-114.66 173.38c-19.592-21.236-37.96-44.41-54.812-69.469l137.94-122.88-150.03 104.12c-13.994-22.615-26.797-46.679-38.156-72.188l156.16-57.531-165.12 36.281c-7.5977-18.91-14.476-38.562-20.469-58.969l157.47-10.938-162.91-8.7188c-6.2925-24.101-11.443-49.187-15.312-75.281l164.09 48.188-167.41-73.438c-3.1944-28.019-4.9424-57.134-5.125-87.344z" style="fill:#fff"/>
  </g>
 </g>
</svg>
