<svg version="1.1" viewBox="0 0 500 500" xmlns="http://www.w3.org/2000/svg">
 <g transform="translate(2821.8 -1082)">
  <g transform="translate(-1397.9 344.35)" style="fill:#fff">
   <path transform="translate(-1423.9,737.65)" d="m379.43 167.75c0.88213 6.1169 1.3457 12.368 1.3457 18.727 0 17.423-3.4335 34.089-9.6387 49.328 48.394-12.358 90.506-30.381 122.57-64.164-32.639 9.0039-83.232 22.642-114.28-3.8906zm-259.08 0.08984c-31.058 26.41-81.571 12.794-114.17 3.8008 32.054 33.764 74.135 51.786 122.49 64.143-6.2092-15.231-9.6504-31.887-9.6504-49.307 0-6.3264 0.46121-12.547 1.334-18.637z" style="fill:#fff"/>
   <path d="m-1423.8 911.3c5.3854 20.84 13.179 49.616 24.688 80.625l185.09 51.938-176.72-30.656c4.0063 9.5886 8.3787 19.268 13.156 28.875l165.72 13.156-156.69 4.0313c3.975 7.1344 8.1819 14.149 12.656 21.031l150.28-14.469-140.75 28.312c5.3811 7.3861 11.12 14.528 17.188 21.312l134.66-36.156-124.03 47.281c7.0429 6.9215 14.5 13.392 22.438 19.25l111.06-53-99.469 60.906c7.6006 4.779 15.598 9.0322 24 12.656l91.406-61.188-79.094 65.938c13.52 4.6261 28.012 7.7081 43.594 8.875 65.36-36.574 140.32-112.07 45.469-158.59-79.002-38.751-213.33-39.218-264.66-110.12z" style="fill:#fff"/>
   <path transform="translate(-1423.9,737.65)" d="m249.9 60.6c-69.431 0-125.88 56.445-125.88 125.88 0 18.71 4.111 36.488 11.459 52.471 6.5021 1.7113 13.049 3.3682 19.602 5.0137-10.187-16.755-16.061-36.41-16.061-57.484 0-61.324 49.552-110.88 110.88-110.88 61.324 0 110.88 49.552 110.88 110.88 0 21.087-5.8587 40.754-16.045 57.514 6.5515-1.6487 13.099-3.3057 19.6-5.0176 7.3444-15.991 11.445-33.78 11.445-52.496 0-69.431-56.443-125.88-125.88-125.88v-0.001953z" style="fill:#fff"/>
   <path transform="translate(-1423.9,737.65)" d="m249.94 85.102c-54.439 0-98.594 44.123-98.594 98.562 0 25.219 9.4805 48.226 25.064 65.664 25.777 6.4978 51.024 13.258 73.473 22.18l5.2676-1.9785c21.1-7.9214 44.467-14.152 68.271-20.168 15.595-17.441 25.08-40.462 25.08-65.697 0-54.439-44.124-98.562-98.562-98.562zm0 42.156c31.165 0 56.406 25.242 56.406 56.406 0 31.165-25.242 56.438-56.406 56.438s-56.438-25.272-56.438-56.438 25.272-56.406 56.438-56.406z" style="fill:#fff"/>
   <path transform="translate(-1423.9,737.65)" d="m284.04 400.07c-8.8223 9.2348-18.939 17.913-29.572 25.809 8.5988 6.0719 17.439 11.654 26.119 16.512 15.582-1.1669 30.074-4.2489 43.594-8.875z" style="fill:#fff"/>
   <path transform="translate(-1423.9,737.65)" d="m300.7 379.47c-3.7702 5.6833-8.1456 11.238-12.986 16.623l48.756 32.629c8.4019-3.6241 16.399-7.8776 24-12.656z" style="fill:#fff"/>
   <path transform="translate(-1423.9,737.65)" d="m311.74 357.4c-1.3038 3.9855-2.9811 7.9297-4.9727 11.801-1.069 2.0779-2.2348 4.1413-3.4746 6.1914l68.809 32.83c7.9374-5.8575 15.396-12.328 22.438-19.25z" style="fill:#fff"/>
   <path transform="translate(-1423.9,737.65)" d="m314.73 334.9c0.44155 6.0729-0.21108 12.182-1.7617 18.223l92.123 24.73c6.0677-6.7847 11.806-13.926 17.188-21.312z" style="fill:#fff"/>
   <path transform="translate(-1423.9,737.65)" d="m310.52 318.16c0.45211 1.0098 0.87077 2.0262 1.252 3.0488 1.242 3.3321 2.0698 6.7025 2.5644 10.09l117.5 11.324c4.4744-6.8824 8.6816-13.897 12.656-21.031z" style="fill:#fff"/>
   <path transform="translate(-1423.9,737.65)" d="m466.68 275.55-165.1 28.646c3.2145 3.7763 5.811 7.6758 7.8398 11.682l144.1-11.453c4.7775-9.6075 9.1502-19.286 13.156-28.875z" style="fill:#fff"/>
   <path transform="translate(-1423.9,737.65)" d="m499.74 173.65c-46.838 64.705-162.78 70.773-242.74 100.79 3.4319 1.48 6.7963 3.0122 10.068 4.6172 14.801 7.2591 25.875 15.371 33.639 24.148l174.35-48.932c11.508-31.009 19.302-59.785 24.688-80.625z" style="fill:#fff"/>
   <path transform="translate(-1423.9,737.65)" d="m371.49 159.52c2e-3 3e-3 4e-3 5e-3 6e-3 8e-3 -9e-5 -3e-3 9e-5 -5e-3 0-8e-3z" style="fill:#fff"/>
   <path transform="translate(-1423.9,737.65)" d="m249.9 30.811-13.596 210.42h27.191l-13.596-210.42z" style="fill:#fff"/>
   <g style="fill:#fff">
    <path d="m-1423.8 911.3c5.3854 20.84 13.179 49.616 24.688 80.625l185.09 51.938-176.72-30.656c4.0063 9.5886 8.3787 19.268 13.156 28.875l165.72 13.156-156.69 4.0313c3.975 7.1344 8.1819 14.149 12.656 21.031l150.28-14.469-140.75 28.312c5.3811 7.3861 11.12 14.528 17.188 21.312l134.66-36.156-124.03 47.281c7.0429 6.9215 14.5 13.392 22.438 19.25l111.06-53-99.469 60.906c7.6006 4.779 15.598 9.0322 24 12.656l91.406-61.188-79.094 65.938c13.52 4.6261 28.012 7.7081 43.594 8.875 65.36-36.574 140.32-112.07 45.469-158.59-79.002-38.751-213.33-39.218-264.66-110.12z" style="fill:#fff"/>
   </g>
   <g transform="translate(-1423.9,737.65)" style="fill:#fff">
    <path d="m499.74 173.65c-46.838 64.705-162.78 70.773-242.74 100.79 3.4319 1.48 6.7963 3.0122 10.068 4.6172 14.801 7.2591 25.875 15.371 33.639 24.148l174.35-48.932c11.508-31.009 19.302-59.785 24.688-80.625z" style="fill:#fff"/>
    <path d="m249.9 60.6c-69.431 0-125.88 56.445-125.88 125.88 0 18.71 4.111 36.488 11.459 52.471 6.5021 1.7113 13.049 3.3682 19.602 5.0137-10.187-16.755-16.061-36.41-16.061-57.484 0-61.324 49.552-110.88 110.88-110.88 61.324 0 110.88 49.552 110.88 110.88 0 21.087-5.8587 40.754-16.045 57.514 6.5515-1.6487 13.099-3.3057 19.6-5.0176 7.3444-15.991 11.445-33.78 11.445-52.496 0-69.431-56.443-125.88-125.88-125.88z" style="fill:#fff"/>
   </g>
  </g>
 </g>
</svg>
